<?xml version="1.0" encoding="utf-8"?>
<!-- Generator: Adobe Illustrator 24.0.1, SVG Export Plug-In . SVG Version: 6.00 Build 0)  -->
<svg version="1.1" id="Layer_1" xmlns="http://www.w3.org/2000/svg" xmlns:xlink="http://www.w3.org/1999/xlink" x="0px" y="0px"
	 viewBox="0 0 100 100" style="enable-background:new 0 0 100 100;" xml:space="preserve">
<style type="text/css">
	.st0{fill:#FBB03B;}
	.st1{fill:#FFFFFF;}
</style>
<circle class="st0" cx="50" cy="50" r="49"/>
<g>
	<path class="st1" d="M43.2,63.2L43,60.8c-0.6-4.9,1.2-10.2,6.4-15.7c4.6-4.8,7.2-8.3,7.2-12.4c0-4.6-3.3-7.7-9.8-7.8
		c-3.7,0-7.8,1.1-10.4,2.8l-2.5-5.7c3.4-2.2,9.3-3.6,14.7-3.6c11.9,0,17.2,6.4,17.2,13.3c0,6.2-3.9,10.6-8.9,15.7
		c-4.5,4.7-6.2,8.7-5.9,13.3l0.1,2.4H43.2z M40.9,75.9c0-3.3,2.6-5.7,6.2-5.7c3.6,0,6.1,2.4,6.1,5.7c0,3.2-2.4,5.6-6.2,5.6
		C43.4,81.5,40.9,79,40.9,75.9z"/>
</g>
</svg>
